# xmcd
#
# Track frame offsets:
#	197
#	27826
#	51058
#	74785
#	102644
#	124347
#	141193
#
# Disc length: 2130 seconds
#
# Revision: 0
# Processed by: cddbd v1.5.1PL0 Copyright (c) Steve Scherf et al.
# Submitted via: dBpowerAMP V4.0
#
DISCID=6c085007
DTITLE=Curtis Mayfield - There's No Place Like America Today
DYEAR=1900
DGENRE=Soul
TTITLE0=Billy Jack
TTITLE1=When Seasons Change
TTITLE2=So In Love
TTITLE3=Jesus
TTITLE4=Blue Monday People
TTITLE5=Hard Times
TTITLE6=Love To The People
EXTD=
EXTT0=
EXTT1=
EXTT2=
EXTT3=
EXTT4=
EXTT5=
EXTT6=
PLAYORDER=
